#!OML:ASF X:\für Bonn\!DataBase\2005_08_11_Bastian_Final\c3d\Bastian.ASF
:FULLY-SPECIFIED
:DEGREES
47
root -22.8676 16.7443 -24.2757 177.645 125.656 -548.94
lowerback 8.02407 -5.01129 1.89549
upperback 6.73946 -6.42052 3.48423
thorax 2.72476 -3.15781 2.90006
lowerneck -5.83747 -1.65889 -6.11815
upperneck -4.80539 -1.59683 10.5616
head -0.355327 -0.683562 4.57742
rclavicle 9.88861e-014 -5.33457e-014
rhumerus -56.5161 2.5006 -77.5306
rradius 37.6075
rwrist 0.575617
rhand -9.83574 5.79702
rfingers 7.12502
rthumb 16.1418 -23.5508
lclavicle 9.88861e-014 -5.33457e-014
lhumerus -29.0858 -31.2075 101.832
lradius 92.2558
lwrist 9.70258
lhand -7.44138 -14.2402
lfingers 7.12502
lthumb 18.4463 14.9052
rfemur -50.0836 -2.77403 20.8951
rtibia 55.2181
rfoot -27.2148 -0.406065
rtoes -16.1722
lfemur 24.7813 4.73866 -13.2521
ltibia 6.36111e-015
lfoot -22.7783 10.2574
ltoes -27.4799
48
root -22.7435 16.6896 -24.1432 177.356 125.207 -549.263
lowerback 8.14635 -5.19914 2.22807
upperback 6.79122 -6.64067 3.60064
thorax 2.69919 -3.25532 2.85972
lowerneck -6.18188 -1.58198 -6.1347
upperneck -4.88235 -1.47371 10.4124
head -0.331995 -0.612779 4.52779
rclavicle -4.56459e-014 1.46107e-014
rhumerus -57.3853 2.66811 -77.541
rradius 38.415
rwrist 0.485969
rhand -9.97142 6.19774
rfingers 7.12502
rthumb 16.0112 -23.1606
lclavicle -4.56459e-014 1.46107e-014
lhumerus -29.2631 -31.7041 102.191
lradius 93.9301
lwrist 9.4821
lhand -7.5126 -14.55
lfingers 7.12502
lthumb 18.3778 14.6019
rfemur -49.6727 -3.01655 20.8985
rtibia 55.0033
rfoot -27.3632 -0.381625
rtoes -17.2321
lfemur 25.4376 4.20206 -12.9403
ltibia -6.04305e-014
lfoot -22.8956 10.4476
ltoes -28.6251
49
root -22.6171 16.6378 -24.0077 177.131 124.754 -549.538
lowerback 8.26815 -5.37852 2.54988
upperback 6.81239 -6.84844 3.70965
thorax 2.64036 -3.34719 2.81971
lowerneck -6.54842 -1.51604 -6.12366
upperneck -4.95259 -1.36788 10.1957
head -0.301841 -0.550747 4.44787
rclavicle 6.1996e-014 -2.83765e-014
rhumerus -58.1954 2.89164 -77.6025
rradius 39.1535
rwrist 0.256949
rhand -10.1614 6.70605
rfingers 7.12502
rthumb 15.8282 -22.6669
lclavicle 6.1996e-014 -2.83765e-014
lhumerus -29.5147 -32.1861 102.562
lradius 95.5425
lwrist 9.44207
lhand -7.52462 -14.7612
lfingers 7.12502
lthumb 18.3662 14.3917
rfemur -49.2502 -3.33714 20.9392
rtibia 54.8425
rfoot -27.4591 -0.454829
rtoes -19.6421
lfemur 26.0392 3.66061 -12.6519
ltibia 6.36111e-015
lfoot -22.9449 10.6194
ltoes -29.6812
50
root -22.4883 16.5876 -23.8694 176.803 124.315 -549.917
lowerback 8.3986 -5.55757 2.93662
upperback 6.8536 -7.04977 3.84005
thorax 2.59203 -3.43319 2.76737
lowerneck -7.03256 -1.45658 -6.19226
upperneck -4.94239 -1.26501 10.0252
head -0.223182 -0.485176 4.40076
rclavicle 1.77415e-014 -1.62506e-014
rhumerus -58.8711 3.01591 -77.5496
rradius 39.8839
rwrist 0.114544
rhand -10.3232 7.27309
rfingers 7.12502
rthumb 15.6724 -22.1122
lclavicle 1.77415e-014 -1.62506e-014
lhumerus -29.7281 -32.626 102.902
lradius 97.0517
lwrist 9.54655
lhand -7.45037 -14.8654
lfingers 7.12502
lthumb 18.4376 14.2808
rfemur -48.7989 -3.73231 21.107
rtibia 54.766
rfoot -27.5169 -0.60329
rtoes -22.4987
lfemur 26.6612 3.12046 -12.2916
ltibia 2.54444e-014
lfoot -22.9537 10.7818
ltoes -30.7344
51
root -22.3591 16.5347 -23.728 176.502 123.895 -550.251
lowerback 8.55253 -5.7127 3.3032
upperback 6.88906 -7.21719 3.94868
thorax 2.52207 -3.50264 2.70562
lowerneck -7.53282 -1.40513 -6.189
upperneck -4.92988 -1.17655 9.81944
head -0.140685 -0.427976 4.32676
rclavicle 5.81942e-014 -2.32578e-014
rhumerus -59.4889 2.88129 -77.3483
rradius 40.6966
rwrist 0.133154
rhand -10.4517 7.88868
rfingers 7.12502
rthumb 15.5486 -21.5062
lclavicle 5.81942e-014 -2.32578e-014
lhumerus -29.9747 -33.0992 103.222
lradius 98.4253
lwrist 9.78976
lhand -7.33496 -15.005
lfingers 7.12502
lthumb 18.5486 14.1307
rfemur -48.3704 -4.14428 21.2888
rtibia 54.8249
rfoot -27.3543 -0.721625
rtoes -23.8389
lfemur 27.2912 2.59823 -11.9668
ltibia -6.04305e-014
lfoot -22.873 11.0261
ltoes -32.0711
52
root -22.2292 16.4827 -23.5849 176.213 123.5 -550.586
lowerback 8.71459 -5.86452 3.66915
upperback 6.91402 -7.37746 4.07549
thorax 2.43823 -3.56913 2.66534
lowerneck -8.1001 -1.35969 -6.29727
upperneck -4.86593 -1.08667 9.65431
head -0.0284904 -0.366528 4.29093
rclavicle 2.62396e-014 -8.34896e-015
rhumerus -60.0463 2.68789 -77.0355
rradius 41.6432
rwrist 0.279054
rhand -10.6018 8.42886
rfingers 7.12502
rthumb 15.404 -20.9772
lclavicle 2.62396e-014 -8.34896e-015
lhumerus -30.2116 -33.5345 103.522
lradius 99.5893
lwrist 10.1886
lhand -7.24811 -15.3091
lfingers 7.12502
lthumb 18.6322 13.8186
rfemur -48.0056 -4.55583 21.5022
rtibia 55.0317
rfoot -27.0103 -0.719775
rtoes -24.0891
lfemur 27.905 2.10012 -11.6388
ltibia 1.08139e-013
lfoot -22.7234 11.2688
ltoes -33.5946
53
root -22.0981 16.4344 -23.4403 175.88 123.154 -550.963
lowerback 8.88556 -5.99002 4.08055
upperback 6.94887 -7.49723 4.18747
thorax 2.35064 -3.61301 2.58435
lowerneck -8.64372 -1.32031 -6.34982
upperneck -4.85158 -1.00513 9.4645
head 0.0632318 -0.311602 4.23579
rclavicle 6.6245e-014 -2.68359e-014
rhumerus -60.4699 2.27819 -76.615
rradius 42.6213
rwrist 0.682001
rhand -10.8265 8.89006
rfingers 7.12502
rthumb 15.1876 -20.5325
lclavicle 6.6245e-014 -2.68359e-014
lhumerus -30.451 -33.9626 103.78
lradius 100.612
lwrist 10.8107
lhand -7.05801 -15.7216
lfingers 7.12502
lthumb 18.815 13.3885
rfemur -47.6743 -4.89869 21.7547
rtibia 55.3983
rfoot -26.6286 -0.743634
rtoes -23.9493
lfemur 28.5218 1.64328 -11.2874
ltibia 3.81667e-014
lfoot -22.4684 11.5702
ltoes -35.0858
54
root -21.9657 16.3907 -23.2942 175.536 122.833 -551.34
lowerback 9.08805 -6.09839 4.50408
upperback 6.96854 -7.58788 4.29569
thorax 2.22676 -3.64232 2.49645
lowerneck -9.23749 -1.28729 -6.4088
upperneck -4.77668 -0.931529 9.28321
head 0.184293 -0.259416 4.18589
rclavicle -3.08116e-015 -3.69739e-014
rhumerus -60.9042 1.86037 -76.1953
rradius 43.7961
rwrist 1.17063
rhand -11.114 9.20713
rfingers 7.12502
rthumb 14.9106 -20.2362
lclavicle -3.08116e-015 -3.69739e-014
lhumerus -30.8007 -34.3536 104.055
lradius 101.414
lwrist 11.4681
lhand -6.8474 -16.4504
lfingers 7.12502
lthumb 19.0176 12.6399
rfemur -47.3649 -5.1126 21.9851
rtibia 55.9142
rfoot -26.1534 -0.846847
rtoes -23.2228
lfemur 29.1379 1.20676 -10.9322
ltibia -1.90833e-014
lfoot -22.0286 11.8617
ltoes -36.6928
55
root -21.8322 16.35 -23.1477 175.14 122.563 -551.763
lowerback 9.25281 -6.18308 4.9276
upperback 7.04622 -7.64982 4.44861
thorax 2.19081 -3.65616 2.44607
lowerneck -9.79291 -1.26106 -6.45199
upperneck -4.78992 -0.863798 9.01442
head 0.26902 -0.213221 4.10189
rclavicle -6.48038e-014 6.16232e-015
rhumerus -61.1646 1.55448 -75.7961
rradius 45.1368
rwrist 1.54628
rhand -11.4214 9.26117
rfingers 7.12502
rthumb 14.6145 -20.2039
lclavicle -6.48038e-014 6.16232e-015
lhumerus -31.0886 -34.7128 104.285
lradius 102.071
lwrist 12.1979
lhand -6.65767 -17.3206
lfingers 7.12502
lthumb 19.2 11.7516
rfemur -47.0921 -5.2059 22.2368
rtibia 56.6756
rfoot -25.79 -1.03994
rtoes -22.6271
lfemur 29.7652 0.814364 -10.5572
ltibia -2.22639e-014
lfoot -21.277 12.2369
ltoes -38.5312
56
root -21.6992 16.3092 -23.0022 174.796 122.347 -552.12
lowerback 9.47434 -6.23644 5.36389
upperback 7.08821 -7.66063 4.56297
thorax 2.0786 -3.64455 2.35408
lowerneck -10.144 -1.19584 -6.33348
upperneck -4.8826 -0.765232 8.68404
head 0.287148 -0.160333 3.96451
rclavicle 3.66758e-014 -5.32743e-014
rhumerus -61.4808 1.30062 -75.5479
rradius 46.6299
rwrist 1.93945
rhand -11.8585 9.21961
rfingers 7.12502
rthumb 14.1933 -20.2755
lclavicle 3.66758e-014 -5.32743e-014
lhumerus -31.5326 -35.0787 104.516
lradius 102.561
lwrist 13.0111
lhand -6.43718 -18.29
lfingers 7.12502
lthumb 19.412 10.761
rfemur -46.8224 -5.27974 22.4942
rtibia 57.523
rfoot -25.5835 -1.30859
rtoes -22.9821
lfemur 30.3896 0.474942 -10.2133
ltibia 6.36111e-014
lfoot -20.1796 12.5914
ltoes -40.1723
57
root -21.5769 16.2234 -22.8621 174.372 122.192 -552.564
lowerback 9.74702 -6.27505 5.82734
upperback 7.10181 -7.63984 4.71224
thorax 1.91089 -3.61814 2.28874
lowerneck -10.317 -1.11455 -6.2335
upperneck -5.04859 -0.649068 8.34354
head 0.249104 -0.103161 3.82784
rclavicle -5.20816e-014 -3.97569e-015
rhumerus -61.6625 1.17134 -75.3806
rradius 48.1013
rwrist 2.30672
rhand -12.2577 9.01519
rfingers 7.12502
rthumb 13.8087 -20.5065
lclavicle -5.20816e-014 -3.97569e-015
lhumerus -32.0795 -35.2968 104.863
lradius 102.76
lwrist 13.6726
lhand -6.2448 -19.342
lfingers 7.12502
lthumb 19.597 9.69031
rfemur -46.7651 -5.30432 22.8097
rtibia 58.5352
rfoot -25.4658 -1.47209
rtoes -23.4741
lfemur 31.0762 0.178407 -9.80558
ltibia -1.59028e-014
lfoot -18.7936 13.0014
ltoes -42.1179
58
root -21.4457 16.1874 -22.7181 173.984 122.112 -552.986
lowerback 10.0085 -6.27602 6.2762
upperback 7.1296 -7.56907 4.86202
thorax 1.76711 -3.56703 2.22522
lowerneck -10.5326 -1.04125 -6.10279
upperneck -5.22104 -0.545569 7.95209
head 0.217218 -0.0523299 3.66762
rclavicle -1.93616e-013 1.44715e-013
rhumerus -61.5174 1.03485 -75.3047
rradius 49.3473
rwrist 2.63212
rhand -12.6458 8.85302
rfingers 7.12502
rthumb 13.4346 -20.6937
lclavicle -1.93616e-013 1.44715e-013
lhumerus -32.5939 -35.4738 105.189
lradius 102.673
lwrist 14.2425
lhand -6.1406 -20.2867
lfingers 7.12502
lthumb 19.6972 8.7354
rfemur -46.4082 -5.23819 23.1272
rtibia 59.2461
rfoot -25.45 -1.59454
rtoes -23.8573
lfemur 31.6933 -0.0361509 -9.4192
ltibia -1.59028e-014
lfoot -17.0403 13.4253
ltoes -43.9608
59
root -21.3118 16.1613 -22.5718 173.54 122.071 -553.438
lowerback 10.3135 -6.27453 6.72988
upperback 7.16174 -7.48614 5.01067
thorax 1.60521 -3.51004 2.16116
lowerneck -10.8555 -0.967039 -6.05167
upperneck -5.3008 -0.432247 7.60956
head 0.234813 0.00751855 3.54255
rclavicle 1.05157e-013 -3.97569e-014
rhumerus -61.0847 0.989927 -75.3937
rradius 50.3252
rwrist 2.96442
rhand -13.0935 8.85736
rfingers 7.12502
rthumb 13.0031 -20.7174
lclavicle 1.05157e-013 -3.97569e-014
lhumerus -33.0951 -35.5519 105.499
lradius 102.273
lwrist 14.638
lhand -6.15925 -21.0856
lfingers 7.12502
lthumb 19.6793 7.9383
rfemur -45.9255 -5.16249 23.4806
rtibia 59.8361
rfoot -25.4851 -1.61586
rtoes -23.861
lfemur 28.7018 -0.113971 -8.86748
ltibia 7.48754
lfoot -18.9435 13.1971
ltoes -45.2883
